<?xml version="1.0" standalone="no"?>
<!DOCTYPE svg PUBLIC "-//W3C//DTD SVG 20010904//EN"
 "http://www.w3.org/TR/2001/REC-SVG-20010904/DTD/svg10.dtd">
<svg version="1.0" xmlns="http://www.w3.org/2000/svg"
 width="500.000000pt" height="500.000000pt" viewBox="0 0 500.000000 500.000000"
 preserveAspectRatio="xMidYMid meet">
<metadata>
Created by potrace 1.11, written by Peter Selinger 2001-2013
</metadata>
<g transform="translate(0.000000,500.000000) scale(0.100000,-0.100000)"
fill="#000000" stroke="none">
<path d="M1595 4150 c-56 -29 -78 -64 -83 -130 -3 -45 0 -61 20 -90 60 -89
181 -94 251 -10 103 122 -46 304 -188 230z"/>
<path d="M1965 4156 c-37 -16 -83 -68 -91 -102 -17 -69 19 -149 80 -178 110
-52 237 33 223 151 -11 103 -122 171 -212 129z"/>
<path d="M2342 4162 c-71 -21 -122 -103 -108 -176 8 -43 54 -99 96 -116 39
-16 115 -8 149 17 68 50 81 165 25 224 -47 51 -102 68 -162 51z"/>
<path d="M2677 4132 c-86 -58 -97 -169 -23 -241 62 -60 155 -59 216 4 62 64
58 154 -9 218 -37 34 -45 37 -98 37 -39 0 -67 -6 -86 -18z"/>
<path d="M3039 4127 c-47 -31 -71 -81 -66 -138 12 -146 200 -191 278 -67 29
47 23 137 -12 174 -55 59 -139 72 -200 31z"/>
<path d="M3410 4132 c-47 -26 -83 -94 -76 -146 12 -100 129 -166 214 -122 98
51 116 170 38 246 -45 43 -121 52 -176 22z"/>
<path d="M1616 3800 c-41 -13 -85 -58 -98 -101 -33 -111 70 -220 180 -189 73
21 112 70 112 144 0 57 -28 109 -69 130 -38 20 -91 27 -125 16z"/>
<path d="M1949 3789 c-45 -27 -79 -84 -79 -134 0 -115 138 -195 230 -132 55
37 75 72 75 132 0 57 -18 91 -67 128 -40 30 -115 33 -159 6z"/>
<path d="M2337 3796 c-69 -25 -97 -66 -97 -143 0 -89 59 -146 153 -147 83 0
142 62 142 149 0 107 -98 177 -198 141z"/>
<path d="M3074 3789 c-35 -10 -82 -53 -95 -87 -15 -40 -10 -105 11 -140 32
-53 75 -74 143 -69 49 3 62 8 92 37 83 81 64 204 -39 251 -45 20 -65 22 -112
8z"/>
<path d="M2694 3780 c-27 -11 -72 -65 -80 -96 -26 -104 58 -203 162 -191 142
16 184 202 62 277 -34 21 -105 26 -144 10z"/>
<path d="M3402 3770 c-75 -46 -90 -158 -30 -226 124 -142 343 32 234 187 -42
60 -139 79 -204 39z"/>
<path d="M1975 3445 c-165 -57 -124 -297 50 -297 91 0 150 60 150 154 0 42 -5
64 -21 85 -43 57 -114 80 -179 58z"/>
<path d="M1580 3428 c-48 -32 -72 -82 -67 -139 12 -144 194 -190 275 -69 20
29 23 44 20 93 -4 51 -9 63 -41 94 -31 32 -43 37 -94 41 -49 3 -64 0 -93 -20z"/>
<path d="M2324 3440 c-11 -4 -34 -24 -52 -44 -27 -31 -32 -44 -32 -90 0 -64
28 -112 80 -139 43 -22 116 -18 153 9 33 23 67 90 67 130 0 41 -31 95 -70 122
-34 23 -104 29 -146 12z"/>
<path d="M2690 3423 c-139 -72 -87 -283 70 -283 113 0 183 113 134 216 -34 72
-132 104 -204 67z"/>
<path d="M3042 3420 c-53 -32 -74 -75 -69 -143 3 -49 8 -62 37 -92 87 -90 225
-56 261 63 21 71 -21 157 -89 183 -40 15 -105 10 -140 -11z"/>
<path d="M3410 3418 c-75 -52 -96 -118 -60 -192 30 -63 76 -90 144 -84 88 7
140 64 139 151 -1 81 -68 147 -148 147 -27 0 -54 -8 -75 -22z"/>
<path d="M2682 3053 c-52 -26 -77 -69 -77 -135 0 -93 59 -153 150 -153 58 0
91 18 129 69 29 38 29 130 1 168 -46 62 -135 85 -203 51z"/>
<path d="M3050 3053 c-102 -53 -110 -201 -14 -264 42 -27 121 -26 165 4 90 60
89 181 -3 250 -37 28 -105 32 -148 10z"/>
<path d="M3412 3053 c-44 -21 -74 -66 -80 -119 -6 -55 11 -95 55 -134 29 -26
41 -30 93 -30 49 0 64 4 90 26 86 73 79 194 -15 249 -48 29 -96 31 -143 8z"/>
<path d="M1616 3030 c-16 -5 -40 -19 -53 -32 -77 -72 -69 -176 19 -242 36 -26
112 -27 153 -2 52 31 70 64 70 131 0 65 -18 100 -65 128 -34 20 -89 28 -124
17z"/>
<path d="M1944 3016 c-139 -85 -67 -301 94 -283 83 9 137 69 137 152 0 85 -56
145 -142 152 -38 3 -56 -1 -89 -21z"/>
<path d="M2325 3026 c-94 -41 -122 -160 -57 -238 70 -83 198 -73 251 22 71
127 -61 274 -194 216z"/>
<path d="M2680 2688 c-53 -37 -74 -72 -74 -126 0 -95 70 -159 164 -150 82 8
134 66 134 150 0 80 -69 148 -149 148 -27 0 -54 -8 -75 -22z"/>
<path d="M3033 2689 c-46 -29 -77 -99 -69 -152 14 -84 100 -148 180 -133 136
26 171 214 54 286 -44 27 -122 27 -165 -1z"/>
<path d="M3410 2693 c-139 -72 -87 -283 70 -283 114 0 185 117 132 219 -9 19
-29 43 -44 54 -38 28 -114 33 -158 10z"/>
<path d="M1595 2660 c-52 -26 -77 -62 -83 -116 -6 -55 11 -96 55 -134 29 -26
41 -30 93 -30 49 0 64 4 90 26 40 34 60 74 60 119 0 115 -115 187 -215 135z"/>
<path d="M1951 2662 c-50 -25 -74 -63 -79 -124 -3 -44 0 -59 20 -87 38 -57 73
-76 133 -76 58 0 91 18 129 68 28 38 28 125 0 164 -52 70 -132 92 -203 55z"/>
<path d="M2325 2666 c-41 -18 -85 -71 -87 -104 -6 -118 46 -182 148 -182 90 0
147 59 148 153 0 102 -115 176 -209 133z"/>
<path d="M2706 2350 c-101 -32 -135 -165 -64 -246 59 -67 154 -68 219 -3 39
39 45 58 40 128 -6 87 -107 149 -195 121z"/>
<path d="M3055 2346 c-103 -45 -124 -181 -40 -255 103 -90 255 -21 255 116 0
108 -115 183 -215 139z"/>
<path d="M3434 2349 c-35 -10 -82 -53 -95 -87 -22 -57 -8 -121 36 -164 60 -60
153 -57 215 7 33 34 35 41 35 100 0 59 -2 66 -35 100 -19 19 -50 40 -70 45
-40 11 -44 11 -86 -1z"/>
<path d="M1965 2316 c-16 -7 -43 -28 -60 -45 -27 -29 -30 -39 -30 -96 0 -49 5
-70 21 -92 33 -45 80 -65 143 -60 48 3 58 8 92 44 46 49 58 100 38 157 -28 79
-132 126 -204 92z"/>
<path d="M1567 2290 c-44 -38 -61 -79 -55 -134 7 -56 32 -90 86 -117 110 -54
222 28 209 154 -4 43 -10 56 -45 89 -38 35 -46 38 -101 38 -53 0 -65 -4 -94
-30z"/>
<path d="M2299 2296 c-43 -30 -64 -75 -62 -135 3 -80 64 -136 148 -136 89 0
149 59 149 148 0 91 -57 147 -151 147 -35 0 -58 -7 -84 -24z"/>
<path d="M2670 1917 c-103 -69 -94 -214 16 -267 84 -41 176 -4 209 84 21 56
14 104 -22 146 -53 64 -141 80 -203 37z"/>
<path d="M3055 1926 c-41 -18 -83 -69 -91 -111 -18 -97 49 -175 151 -175 89 0
147 60 147 151 -1 108 -109 178 -207 135z"/>
<path d="M3415 1926 c-83 -37 -114 -142 -65 -221 58 -95 207 -86 262 15 64
118 -74 262 -197 206z"/>
<path d="M1585 1920 c-33 -13 -72 -62 -83 -102 -28 -102 71 -214 170 -194 84
17 146 99 133 176 -8 46 -43 93 -86 115 -30 16 -102 19 -134 5z"/>
<path d="M1932 1910 c-91 -56 -97 -182 -13 -253 87 -73 229 -16 248 98 8 52
-21 120 -65 150 -47 32 -122 34 -170 5z"/>
<path d="M2290 1908 c-49 -34 -72 -83 -67 -141 5 -61 30 -96 90 -125 168 -85
304 161 148 265 -47 32 -125 32 -171 1z"/>
</g>
</svg>
